<?xml version="1.0" encoding="utf-8"?>
<!-- Generator: Adobe Illustrator 25.1.0, SVG Export Plug-In . SVG Version: 6.00 Build 0)  -->
<svg version="1.1" id="레이어_1" xmlns="http://www.w3.org/2000/svg" xmlns:xlink="http://www.w3.org/1999/xlink" x="0px"
	 y="0px" viewBox="0 0 60 60" style="enable-background:new 0 0 60 60;" xml:space="preserve">
<style type="text/css">
	.st0{fill:#FFFFFF;}
	.st1{font-family:'NanumGothic';}
	.st2{font-size:9px;}
</style>
<g id="그룹_4955" transform="translate(-105.957 1569.125)">
	<path id="패스_734" class="st0" d="M131-1533.7c0.3,0,0.5-0.2,0.5-0.5l0,0v-20.8c0-0.3-0.2-0.5-0.5-0.5l0,0h-4.1
		c-0.3,0-0.5,0.2-0.5,0.5l0,0v20.8c0,0.3,0.2,0.5,0.5,0.5l0,0H131z M127.4-1554.5h3.1v19.9h-3.1V-1554.5z"/>
	<path id="패스_735" class="st0" d="M134.2-1551.6h7c0.3,0,0.5-0.2,0.5-0.5l0,0v-2.9c0-0.3-0.2-0.5-0.5-0.5l0,0h-7
		c-0.3,0-0.5,0.2-0.5,0.5l0,0v2.9C133.7-1551.9,133.9-1551.6,134.2-1551.6L134.2-1551.6z M134.7-1554.5h6.1v1.9h-6.1V-1554.5z"/>
	<path id="패스_736" class="st0" d="M133.7-1546.3c0,0.3,0.2,0.5,0.5,0.5l0,0h7c0.3,0,0.5-0.2,0.5-0.5l0,0v-2.9
		c0-0.3-0.2-0.5-0.5-0.5l0,0h-7c-0.3,0-0.5,0.2-0.5,0.5l0,0V-1546.3z M134.7-1548.7h6.1v1.9h-6.1V-1548.7z"/>
	<path id="패스_737" class="st0" d="M133.7-1540.5c0,0.3,0.2,0.5,0.5,0.5l0,0h7c0.3,0,0.5-0.2,0.5-0.5l0,0v-2.9
		c0-0.3-0.2-0.5-0.5-0.5l0,0h-7c-0.3,0-0.5,0.2-0.5,0.5l0,0V-1540.5z M134.7-1542.9h6.1v1.9h-6.1V-1542.9z"/>
	<path id="패스_738" class="st0" d="M133.7-1534.7c0,0.3,0.2,0.5,0.5,0.5l0,0h7c0.3,0,0.5-0.2,0.5-0.5l0,0v-2.9
		c0-0.3-0.2-0.5-0.5-0.5l0,0h-7c-0.3,0-0.5,0.2-0.5,0.5l0,0V-1534.7z M134.7-1537.1h6.1v1.9h-6.1V-1537.1z"/>
	<path id="패스_739" class="st0" d="M149.2-1556h-3.4c-0.3-1.7-1.7-2.9-3.4-2.9h-16.6c-1.9,0-3.5,1.6-3.5,3.5v21.5
		c0,0.3,0.2,0.5,0.5,0.5l0,0c0.3,0,0.5-0.2,0.5-0.5l0,0v-21.5c0-1.4,1.1-2.5,2.5-2.5h16.5c1.4,0,2.5,1.1,2.5,2.5v21.5
		c0,0.3,0.2,0.5,0.5,0.5l0,0c0.3,0,0.5-0.2,0.5-0.5l0,0v-9h3.4c0.3,0,0.5-0.2,0.5-0.5l0,0v-12.1C149.7-1555.8,149.5-1556,149.2-1556
		z M148.7-1543.9h-2.9v-11.1h2.9V-1543.9z"/>
	<path id="패스_740" class="st0" d="M149.2-1531.5h-26.4c-0.3,0-0.5,0.2-0.5,0.5l0,0c0,0.3,0.2,0.5,0.5,0.5l0,0h26.4
		c0.3,0,0.5-0.2,0.5-0.5l0,0C149.7-1531.3,149.5-1531.5,149.2-1531.5L149.2-1531.5z"/>
</g>
<text transform="matrix(1 0 0 1 21.765 51.8003)" class="st0 st1 st2">호텔</text>
</svg>
