<?xml version="1.0" encoding="utf-8"?>
<!-- Generator: Adobe Illustrator 25.1.0, SVG Export Plug-In . SVG Version: 6.00 Build 0)  -->
<svg version="1.1" id="레이어_1" xmlns="http://www.w3.org/2000/svg" xmlns:xlink="http://www.w3.org/1999/xlink" x="0px"
	 y="0px" viewBox="0 0 60 60" style="enable-background:new 0 0 60 60;" xml:space="preserve">
<style type="text/css">
	.st0{fill:#FFFFFF;}
	.st1{font-family:'NanumGothic';}
	.st2{font-size:9px;}
</style>
<g>
	<g>
		<path id="Path_2466_8_" class="st0" d="M44.3,22.4h-1.6c-0.3-6.6-5.5-11.9-12.2-12.2V8.6c0-0.3-0.3-0.5-0.5-0.5
			c-0.3,0-0.5,0.3-0.5,0.5v1.6c-6.5,0.3-11.8,5.6-12.1,12.2h-1.6c-0.3,0-0.5,0.3-0.5,0.5s0.3,0.5,0.5,0.5h1.6
			c0.3,6.6,5.6,11.9,12.2,12.2v1.6c0,0.3,0.3,0.5,0.5,0.5c0.3,0,0.5-0.3,0.5-0.5v-1.6c6.6-0.3,11.9-5.6,12.2-12.2h1.6
			c0.3,0,0.5-0.3,0.5-0.5C44.8,22.5,44.5,22.4,44.3,22.4L44.3,22.4z M41.6,22.4h-1c-0.3-5.5-4.7-9.8-10.1-10.1v-1
			C36.5,11.5,41.3,16.3,41.6,22.4L41.6,22.4z M37.7,20.9c-0.3,0-0.5,0.3-0.5,0.5v0.9H34V22c0-0.3-0.3-0.5-0.5-0.5
			c-0.3,0-0.5,0.3-0.5,0.5l0,0v0.4h-1c-0.3,0-0.5,0.3-0.5,0.5s0.3,0.5,0.5,0.5l0,0H33v0.4c0,0.3,0.3,0.5,0.5,0.5
			c0.3,0,0.5-0.3,0.5-0.5v-0.4h3.2v0.9c0,0.3,0.3,0.5,0.5,0.5c0.3,0,0.5-0.3,0.5-0.5v-0.9h1.4c-0.3,4.9-4.2,8.8-9,9v-1.4h0.9
			c0.3,0,0.5-0.3,0.5-0.5c0-0.3-0.3-0.5-0.5-0.5h-0.9v-3.2H31c0.3,0,0.5-0.3,0.5-0.5s-0.3-0.5-0.5-0.5h-0.4v-1
			c0-0.3-0.3-0.5-0.5-0.5c-0.3,0-0.5,0.3-0.5,0.5l0,0v1.1h-0.4c-0.3,0-0.5,0.3-0.5,0.5c0,0.3,0.3,0.5,0.5,0.5h0.4v3.2h-0.9
			c-0.3,0-0.5,0.3-0.5,0.5c0,0.3,0.3,0.5,0.5,0.5h0.9v1.4c-4.9-0.3-8.8-4.2-9-9h1.4v0.9c0,0.3,0.3,0.5,0.5,0.5
			c0.3,0,0.5-0.3,0.5-0.5v-0.9h3.2v0.4c0,0.3,0.3,0.5,0.5,0.5c0.3,0,0.5-0.3,0.5-0.5v-0.4h1.1c0.3,0,0.5-0.3,0.5-0.5
			s-0.3-0.5-0.5-0.5h-1.1v-0.4c0-0.3-0.3-0.5-0.5-0.5c-0.3,0-0.5,0.3-0.5,0.5v0.4H23v-0.9c0-0.3-0.3-0.5-0.5-0.5
			c-0.3,0-0.5,0.3-0.5,0.5v0.9h-1.4c0.3-4.9,4.2-8.8,9-9v1.4h-0.9c-0.3,0-0.5,0.3-0.5,0.5c0,0.3,0.3,0.5,0.5,0.5h0.9V19h-0.4
			c-0.3,0-0.5,0.3-0.5,0.5s0.3,0.5,0.5,0.5l0,0h0.4v1.1c0,0.3,0.3,0.5,0.5,0.5s0.5-0.3,0.5-0.5v-1.1H31c0.3,0,0.5-0.3,0.5-0.5
			c0-0.3-0.3-0.5-0.5-0.5h-0.4v-3.2h0.9c0.3,0,0.5-0.3,0.5-0.5s-0.3-0.5-0.5-0.5l0,0h-0.9v-1.4c4.9,0.3,8.8,4.2,9,9h-1.4v-0.9
			C38.2,21.2,38,20.9,37.7,20.9L37.7,20.9L37.7,20.9z M29.5,11.3v0.9c-5.5,0.3-9.8,4.7-10.1,10.1h-1C18.6,16.3,23.4,11.5,29.5,11.3
			L29.5,11.3z M18.4,23.4h0.9c0.3,5.5,4.7,9.8,10.1,10.1v1C23.4,34.2,18.6,29.4,18.4,23.4L18.4,23.4z M30.5,34.5v-1
			c5.5-0.3,9.8-4.7,10.1-10.1h1C41.3,29.4,36.5,34.2,30.5,34.5z"/>
	</g>
</g>
<text transform="matrix(1 0 0 1 17.6116 51.8003)" class="st0 st1 st2">군기관</text>
</svg>
