<?xml version="1.0" encoding="utf-8"?>
<!-- Generator: Adobe Illustrator 25.1.0, SVG Export Plug-In . SVG Version: 6.00 Build 0)  -->
<svg version="1.1" id="레이어_1" xmlns="http://www.w3.org/2000/svg" xmlns:xlink="http://www.w3.org/1999/xlink" x="0px"
	 y="0px" viewBox="0 0 60 60" style="enable-background:new 0 0 60 60;" xml:space="preserve">
<style type="text/css">
	.st0{fill:#FFFFFF;}
	.st1{font-family:'NanumGothic';}
	.st2{font-size:9px;}
</style>
<g id="그룹_4952" transform="translate(191.02 1569.299)">
	<g>
		<path id="패스_722_8_" class="st0" d="M-148.3-1553.4v20c0,0.7-0.6,1.3-1.3,1.3h-22.9c-0.7,0-1.3-0.6-1.3-1.3v-20h-1v20
			c0,1.2,1,2.2,2.2,2.2h22.9c1.2,0,2.2-1,2.2-2.2v-20H-148.3z"/>
		<path id="패스_723_8_" class="st0" d="M-172.1-1534.8c0.1,0.1,0.2,0.1,0.3,0.1c0.1,0,0.1,0,0.2,0c0,0,4.4-1.5,10.5,0
			c0,0,0,0,0,0c0,0,0,0,0.1,0c0,0,0,0,0.1,0c0,0,0,0,0.1,0c0,0,0,0,0.1,0c0,0,0,0,0,0c0,0,4.4-1.5,10.5,0c0,0,0.1,0,0.1,0
			c0.1,0,0.2,0,0.3-0.1c0.1-0.1,0.2-0.2,0.2-0.4v-20c0-0.2-0.1-0.4-0.3-0.4c-0.6-0.2-1.2-0.5-1.9-0.6v-4c0-0.2-0.1-0.3-0.2-0.4
			c-0.1-0.1-0.3-0.1-0.5,0l-8.4,4.9c-6.1-2.4-10.7,0-10.9,0.1c-0.2,0.1-0.3,0.2-0.3,0.4v20C-172.3-1535-172.2-1534.9-172.1-1534.8z
			 M-152.2-1541c0.1-0.1,0.2-0.2,0.2-0.4v-13.9c0.4,0.1,0.8,0.2,1.2,0.4v19.1c-2.8-0.6-5.6-0.7-8.4-0.3L-152.2-1541z M-160.4-1555
			l7.5-4.4v17.8l-7.5,5.2V-1555z M-171.3-1554.9c3.2-1.2,6.7-1.2,9.8,0v19.1c-1.7-0.4-3.4-0.6-5.1-0.6c-1.6,0-3.1,0.2-4.7,0.5
			V-1554.9z"/>
	</g>
</g>
<text transform="matrix(1 0 0 1 21.765 51.8003)" class="st0 st1 st2">학교</text>
</svg>
