<?xml version="1.0" encoding="utf-8"?>
<!-- Generator: Adobe Illustrator 25.1.0, SVG Export Plug-In . SVG Version: 6.00 Build 0)  -->
<svg version="1.1" id="레이어_1" xmlns="http://www.w3.org/2000/svg" xmlns:xlink="http://www.w3.org/1999/xlink" x="0px"
	 y="0px" viewBox="0 0 60 60" style="enable-background:new 0 0 60 60;" xml:space="preserve">
<style type="text/css">
	.st0{fill:#FFFFFF;}
	.st1{font-family:'NanumGothic';}
	.st2{font-size:9px;}
</style>
<g id="그룹_4953" transform="translate(-34.622 1570.14)">
	<g>
		<path id="패스_727_8_" class="st0" d="M75.2-1546.2h-2.1v-2.5h4c0.3,0,0.5-0.2,0.5-0.5l0,0v-3.4h-1v2.9h-3.5v-4.7
			c0-0.7-0.3-1.5-0.8-2s-1.2-0.8-2-0.8H58.9c-0.7,0-1.5,0.3-2,0.8s-0.8,1.2-0.8,2v4.7h-3.4v-3.3h-1v3.8c0,0.3,0.2,0.5,0.5,0.5l0,0
			h3.9v2.5h-2c-1.6,0-2.7,1.3-2.7,3.2v8.8h2.8c0.2,1.6,1.6,2.7,3.2,2.7c1.6,0,3-1.2,3.2-2.7h8.1c0.2,1.6,1.6,2.7,3.2,2.7
			s3-1.2,3.2-2.7h2.8v-8.8C77.9-1545,76.8-1546.2,75.2-1546.2z M57.4-1532.5c-1.1,0-2-0.7-2.2-1.8h4.4
			C59.3-1533.2,58.4-1532.5,57.4-1532.5L57.4-1532.5z M71.9-1532.5c-1.1,0-2-0.7-2.2-1.8h4.4C73.8-1533.2,72.9-1532.5,71.9-1532.5
			L71.9-1532.5z M76.9-1535.2H52.4v-2h24.5V-1535.2z M52.4-1538.2v-4.8c0-0.5,0.1-2.2,1.7-2.2h3v-9.2c0-0.5,0.2-0.9,0.5-1.3
			c0.3-0.3,0.8-0.5,1.3-0.5h11.4c0.5,0,0.9,0.2,1.3,0.5c0.3,0.3,0.5,0.8,0.5,1.3v9.2h3.1c1.6,0,1.7,1.7,1.7,2.2v4.8H52.4z"/>
		<path id="패스_728_8_" class="st0" d="M69.9-1554H59.4c-0.3,0-0.5,0.2-0.5,0.5l0,0v6c0,0.3,0.2,0.5,0.5,0.5l0,0h10.5
			c0.3,0,0.5-0.2,0.5-0.5l0,0v-6C70.4-1553.8,70.2-1554,69.9-1554z M69.4-1548h-9.5v-5h9.5V-1548z"/>
		<path id="패스_729_8_" class="st0" d="M52.7-1557.1c0-1.2,0.9-2.2,2.1-2.2h19.6c1.2,0,2.2,1,2.1,2.2v1.6h1v-1.6
			c0-1.8-1.4-3.2-3.1-3.2H54.9c-1.8,0-3.2,1.5-3.1,3.2v1.6h1L52.7-1557.1z"/>
		<path id="패스_730_8_" class="st0" d="M56.3-1543.7c-1.2-0.1-2.2,0.8-2.3,2s0.8,2.2,2,2.3h0.1c1.1,0,2-0.9,2.1-2l0,0
			C58.3-1542.6,57.4-1543.7,56.3-1543.7z M56.1-1540.5c-0.6,0-1.1-0.6-1.1-1.2s0.5-1.1,1.1-1.1h0.1c0.6,0,1.1,0.6,1.1,1.2
			C57.2-1540.9,56.7-1540.5,56.1-1540.5L56.1-1540.5z"/>
		<path id="패스_731_8_" class="st0" d="M73.3-1543.7c-1.2-0.1-2.2,0.8-2.3,2c0,0.6,0.1,1.1,0.5,1.5s0.9,0.7,1.5,0.7h0.1
			c0.5,0,1-0.2,1.4-0.5c0.4-0.4,0.7-0.9,0.7-1.5C75.3-1542.6,74.4-1543.7,73.3-1543.7z M74.2-1541.5c0,0.3-0.2,0.6-0.4,0.8
			c-0.2,0.2-0.5,0.3-0.8,0.3s-0.6-0.2-0.8-0.4c-0.2-0.2-0.3-0.5-0.3-0.8c0-0.6,0.5-1.1,1.1-1.1c0,0,0,0,0.1,0
			C73.8-1542.7,74.3-1542.2,74.2-1541.5L74.2-1541.5z"/>
		<rect id="사각형_1833_8_" x="61" y="-1542.2" class="st0" width="7.2" height="1"/>
	</g>
</g>
<text transform="matrix(1 0 0 1 11.9553 51.8003)" class="st0 st1 st2">유통/운송</text>
</svg>
