<?xml version="1.0" encoding="utf-8"?>
<!-- Generator: Adobe Illustrator 25.1.0, SVG Export Plug-In . SVG Version: 6.00 Build 0)  -->
<svg version="1.1" id="레이어_1" xmlns="http://www.w3.org/2000/svg" xmlns:xlink="http://www.w3.org/1999/xlink" x="0px"
	 y="0px" viewBox="0 0 60 60" style="enable-background:new 0 0 60 60;" xml:space="preserve">
<style type="text/css">
	.st0{fill:#FFFFFF;stroke:#FFFFFF;stroke-width:0.25;stroke-miterlimit:10;}
	.st1{fill:#FFFFFF;}
	.st2{font-family:'NanumGothic';}
	.st3{font-size:9px;}
</style>
<g id="그룹_4954" transform="translate(-70.341 1570.356)">
	<path id="패스_732" class="st0" d="M113.3-1556.3c-1.5-1.5-3.6-2.4-5.7-2.4s-4.2,0.9-5.7,2.4l-1.6,1.6l-1.6-1.6
		c-1.5-1.5-3.6-2.4-5.7-2.4s-4.2,0.9-5.7,2.4c-1.7,1.8-2.6,4.2-2.3,6.7c0,0.3,0.3,0.4,0.5,0.4l0,0c0.3,0,0.4-0.3,0.4-0.5l0,0
		c-0.2-2.2,0.5-4.3,2-5.9c1.3-1.3,3.1-2.1,5-2.1s3.7,0.8,5,2.1l2,1.9c0.2,0.2,0.5,0.2,0.7,0l2-1.9c1.3-1.3,3.1-2.1,5-2.1
		s3.7,0.8,5,2.1c2.8,2.8,2.8,7.4,0,10.2l-12.4,12.5l-10.4-10.5c-0.2-0.2-0.5-0.2-0.7,0l0,0c-0.2,0.2-0.2,0.5,0,0.7l10.7,10.9
		c0.1,0.1,0.2,0.1,0.3,0.1c0.1,0,0.2-0.1,0.3-0.1l12.7-12.8C116.5-1548,116.5-1553.1,113.3-1556.3z"/>
	<path id="패스_733" class="st0" d="M92.6-1546.7l0.9-1.1l2.5,5.5c0.1,0.2,0.3,0.3,0.5,0.3s0.4-0.1,0.4-0.3l2.6-7.2l2.9,9.1
		c0.1,0.2,0.2,0.3,0.4,0.3c0,0,0,0,0.1,0c0.2,0,0.3-0.1,0.4-0.2l3.6-5.4c0.1-0.2,0.1-0.5-0.1-0.7c-0.2-0.1-0.5-0.1-0.7,0.1l-3,4.6
		l-3-9.5c-0.1-0.2-0.2-0.3-0.4-0.3c-0.2,0-0.4,0.1-0.5,0.3l-2.7,7.4l-2.4-5.1c-0.1-0.1-0.2-0.2-0.4-0.3c-0.2,0-0.3,0-0.4,0.2
		l-1.3,1.5h-4.8c-0.3,0-0.5,0.2-0.5,0.5l0,0c0,0.3,0.2,0.5,0.5,0.5l0,0h5C92.4-1546.5,92.5-1546.6,92.6-1546.7z"/>
</g>
<text transform="matrix(1 0 0 1 21.765 51.8003)" class="st1 st2 st3">의료</text>
</svg>
