<?xml version="1.0" encoding="utf-8"?>
<!-- Generator: Adobe Illustrator 25.1.0, SVG Export Plug-In . SVG Version: 6.00 Build 0)  -->
<svg version="1.1" id="레이어_1" xmlns="http://www.w3.org/2000/svg" xmlns:xlink="http://www.w3.org/1999/xlink" x="0px"
	 y="0px" viewBox="0 0 60 60" style="enable-background:new 0 0 60 60;" xml:space="preserve">
<style type="text/css">
	.st0{fill:#FFFFFF;}
	.st1{font-family:'NanumGothic';}
	.st2{font-size:9px;}
</style>
<g>
	<g>
		<path class="st0" d="M43,10.3H17c-0.3,0-0.5,0.2-0.5,0.5V29c0,0.3,0.2,0.5,0.5,0.5h8.6l-5,8.8c-0.1,0.3-0.1,0.6,0.2,0.7
			c0.1,0,0.2,0.1,0.3,0.1c0.2,0,0.4-0.1,0.5-0.3l5.3-9.3h6.3l5.3,9.3c0.1,0.2,0.3,0.3,0.5,0.3c0.1,0,0.2,0,0.3-0.1
			c0.3-0.1,0.3-0.5,0.2-0.7l-5-8.8H43c0.3,0,0.5-0.2,0.5-0.5V10.9C43.5,10.6,43.2,10.3,43,10.3z M42.4,28.5H17.6V11.4h24.9V28.5z"/>
		<path class="st0" d="M19.7,26.9h4h5.3h11.4c0.3,0,0.5-0.2,0.5-0.5V13.5c0-0.3-0.2-0.5-0.5-0.5H19.7c-0.3,0-0.5,0.2-0.5,0.5v12.9
			C19.2,26.7,19.4,26.9,19.7,26.9z M22.1,24.3v-2.1c0-0.9,0.7-1.6,1.6-1.6h0.4v5.3h-0.4C22.8,25.8,22.1,25.1,22.1,24.3z M26.8,20.6
			v5.3h-1.6v-5.3H26.8z M27.8,25.8v-5.3h1.1c0.9,0,1.6,0.7,1.6,1.6v2.1c0,0.9-0.7,1.6-1.6,1.6H27.8z M20.2,14h19.6v11.8H31
			c0.3-0.4,0.5-1,0.5-1.6v-2.1c0-1.5-1.2-2.6-2.6-2.6h-5.3c-1.5,0-2.6,1.2-2.6,2.6v2.1c0,0.6,0.2,1.1,0.5,1.6h-1.4V14z"/>
	</g>
</g>
<text transform="matrix(1 0 0 1 21.7652 51.8003)" class="st0 st1 st2">학원</text>
</svg>
